<svg width="19" height="19" viewBox="0 0 19 19" fill="none" xmlns="http://www.w3.org/2000/svg">
<g clip-path="url(#clip0_7162_113758)">
<path d="M18.3757 9.86219C18.3757 4.81564 14.2847 0.724609 9.23816 0.724609C4.19161 0.724609 0.100586 4.81564 0.100586 9.86219C0.100586 14.4229 3.44205 18.2033 7.81042 18.8888V12.5035H5.49033V9.86219H7.81042V7.84906C7.81042 5.55896 9.17463 4.29397 11.2618 4.29397C12.2612 4.29397 13.3072 4.47244 13.3072 4.47244V6.72114H12.155C11.02 6.72114 10.6659 7.42556 10.6659 8.14889V9.86219H13.2002L12.795 12.5035H10.6659V18.8888C15.0343 18.2033 18.3757 14.4229 18.3757 9.86219Z" fill="#D7CAFC"/>
</g>
<defs>
<clipPath id="clip0_7162_113758">
<rect width="18.2752" height="18.2752" fill="white" transform="translate(0.100586 0.724609)"/>
</clipPath>
</defs>
</svg>
