<svg width="19" height="19" viewBox="0 0 19 19" fill="none" xmlns="http://www.w3.org/2000/svg">
<g clip-path="url(#clip0_7162_113760)">
<path d="M9.33875 2.37009C11.7802 2.37009 12.0693 2.38079 13.0295 2.42363C13.9218 2.46289 14.4037 2.6128 14.7249 2.73773C15.1497 2.90192 15.4566 3.10181 15.7743 3.41948C16.0956 3.74072 16.2919 4.04412 16.4561 4.46887C16.581 4.79012 16.7309 5.27555 16.7702 6.16432C16.813 7.12805 16.8237 7.41717 16.8237 9.85505C16.8237 12.2965 16.813 12.5856 16.7702 13.5458C16.7309 14.4381 16.581 14.92 16.4561 15.2412C16.2919 15.666 16.092 15.9729 15.7743 16.2906C15.4531 16.6119 15.1497 16.8082 14.7249 16.9724C14.4037 17.0973 13.9182 17.2472 13.0295 17.2865C12.0657 17.3293 11.7766 17.34 9.33875 17.34C6.8973 17.34 6.60818 17.3293 5.64802 17.2865C4.75568 17.2472 4.27382 17.0973 3.95258 16.9724C3.52782 16.8082 3.22086 16.6083 2.90318 16.2906C2.58194 15.9694 2.38562 15.666 2.22143 15.2412C2.09651 14.92 1.94659 14.4345 1.90733 13.5458C1.8645 12.582 1.85379 12.2929 1.85379 9.85505C1.85379 7.4136 1.8645 7.12448 1.90733 6.16432C1.94659 5.27198 2.09651 4.79012 2.22143 4.46887C2.38562 4.04412 2.58551 3.73715 2.90318 3.41948C3.22442 3.09824 3.52782 2.90192 3.95258 2.73773C4.27382 2.6128 4.75925 2.46289 5.64802 2.42363C6.60818 2.38079 6.8973 2.37009 9.33875 2.37009ZM9.33875 0.724609C6.85804 0.724609 6.5475 0.735317 5.57307 0.77815C4.6022 0.820982 3.93473 0.978034 3.35649 1.2029C2.75327 1.43848 2.24285 1.74902 1.736 2.25944C1.22558 2.76629 0.915045 3.27671 0.679467 3.87636C0.454597 4.45817 0.297545 5.12207 0.254712 6.09294C0.21188 7.07094 0.201172 7.38148 0.201172 9.86219C0.201172 12.3429 0.21188 12.6534 0.254712 13.6279C0.297545 14.5987 0.454597 15.2662 0.679467 15.8444C0.915045 16.4477 1.22558 16.9581 1.736 17.4649C2.24285 17.9718 2.75327 18.2859 3.35292 18.5179C3.93473 18.7428 4.59863 18.8998 5.5695 18.9426C6.54393 18.9855 6.85447 18.9962 9.33518 18.9962C11.8159 18.9962 12.1264 18.9855 13.1009 18.9426C14.0717 18.8998 14.7392 18.7428 15.3174 18.5179C15.9171 18.2859 16.4275 17.9718 16.9344 17.4649C17.4412 16.9581 17.7553 16.4477 17.9873 15.848C18.2122 15.2662 18.3692 14.6023 18.4121 13.6314C18.4549 12.657 18.4656 12.3465 18.4656 9.86576C18.4656 7.38505 18.4549 7.07451 18.4121 6.10007C18.3692 5.12921 18.2122 4.46174 17.9873 3.8835C17.7625 3.27671 17.4519 2.76629 16.9415 2.25944C16.4346 1.75259 15.9242 1.43848 15.3246 1.20647C14.7428 0.981604 14.0789 0.824552 13.108 0.781719C12.13 0.735317 11.8195 0.724609 9.33875 0.724609Z" fill="#D7CAFC"/>
<path d="M9.33922 5.16846C6.74786 5.16846 4.64551 7.27081 4.64551 9.86217C4.64551 12.4535 6.74786 14.5559 9.33922 14.5559C11.9306 14.5559 14.0329 12.4535 14.0329 9.86217C14.0329 7.27081 11.9306 5.16846 9.33922 5.16846ZM9.33922 12.9068C7.65805 12.9068 6.29455 11.5433 6.29455 9.86217C6.29455 8.181 7.65805 6.8175 9.33922 6.8175C11.0204 6.8175 12.3839 8.181 12.3839 9.86217C12.3839 11.5433 11.0204 12.9068 9.33922 12.9068Z" fill="#D7CAFC"/>
<path d="M15.3137 4.983C15.3137 5.5898 14.8211 6.0788 14.2179 6.0788C13.6111 6.0788 13.1221 5.58623 13.1221 4.983C13.1221 4.37621 13.6146 3.88721 14.2179 3.88721C14.8211 3.88721 15.3137 4.37978 15.3137 4.983Z" fill="#D7CAFC"/>
</g>
<defs>
<clipPath id="clip0_7162_113760">
<rect width="18.2752" height="18.2752" fill="white" transform="translate(0.201172 0.724609)"/>
</clipPath>
</defs>
</svg>
