<svg width="19" height="19" viewBox="0 0 19 19" fill="none" xmlns="http://www.w3.org/2000/svg">
<g clip-path="url(#clip0_7162_113757)">
<path d="M17.4731 0.724609H1.9C1.154 0.724609 0.550781 1.31355 0.550781 2.04171V17.6791C0.550781 18.4072 1.154 18.9998 1.9 18.9998H17.4731C18.2191 18.9998 18.8259 18.4072 18.8259 17.6827V2.04171C18.8259 1.31355 18.2191 0.724609 17.4731 0.724609ZM5.97265 16.2978H3.25993V7.57422H5.97265V16.2978ZM4.61629 6.38562C3.74536 6.38562 3.0422 5.68246 3.0422 4.8151C3.0422 3.94775 3.74536 3.24458 4.61629 3.24458C5.48364 3.24458 6.18681 3.94775 6.18681 4.8151C6.18681 5.67889 5.48364 6.38562 4.61629 6.38562ZM16.1239 16.2978H13.4148V12.0573C13.4148 11.0472 13.3969 9.7444 12.0049 9.7444C10.595 9.7444 10.3808 10.8473 10.3808 11.986V16.2978H7.67524V7.57422H10.2737V8.76639H10.3094C10.6699 8.08107 11.5551 7.35649 12.8722 7.35649C15.6171 7.35649 16.1239 9.16259 16.1239 11.5112V16.2978Z" fill="#D7CAFC"/>
</g>
<defs>
<clipPath id="clip0_7162_113757">
<rect width="18.2752" height="18.2752" fill="white" transform="translate(0.550781 0.724609)"/>
</clipPath>
</defs>
</svg>
