<svg width="18" height="18" viewBox="0 0 18 18" fill="none" xmlns="http://www.w3.org/2000/svg">
<path d="M5.53376 7.64208L3.85867 9.31717C3.23307 9.94277 2.87331 10.794 2.87988 11.6886C2.88646 12.5832 3.23835 13.4396 3.89363 14.0747C4.52864 14.73 5.38524 15.0819 6.27971 15.0884C7.19457 15.0952 8.02565 14.7557 8.65129 14.13L10.3264 12.455M12.466 10.3563L14.1411 8.68118C14.7667 8.05558 15.1264 7.20436 15.1199 6.30975C15.1133 5.41514 14.7614 4.55872 14.1061 3.92367C13.4713 3.28881 12.6148 2.9369 11.7202 2.93033C10.8256 2.92375 9.97425 3.26309 9.34861 3.88871L7.67352 5.5638M6.45971 11.4946L11.485 6.46928" stroke="#222529" stroke-width="2" stroke-linecap="round" stroke-linejoin="round"/>
</svg>
