<svg width="20" height="19" viewBox="0 0 20 19" fill="none" xmlns="http://www.w3.org/2000/svg">
<g clip-path="url(#clip0_7162_113761)">
<path d="M13.7516 0.724609H10.6717V13.1729C10.6717 14.6561 9.48715 15.8745 8.01301 15.8745C6.53887 15.8745 5.3543 14.6561 5.3543 13.1729C5.3543 11.7162 6.51255 10.5243 7.93406 10.4714V7.34605C4.8015 7.399 2.27441 9.96813 2.27441 13.1729C2.27441 16.4042 4.85415 18.9998 8.03935 18.9998C11.2245 18.9998 13.8042 16.3777 13.8042 13.1729V6.78983C14.9625 7.63739 16.384 8.14062 17.8844 8.16711V5.04178C15.568 4.96233 13.7516 3.05535 13.7516 0.724609Z" fill="#D7CAFC"/>
</g>
<defs>
<clipPath id="clip0_7162_113761">
<rect width="18.2752" height="18.2752" fill="white" transform="translate(0.751953 0.724609)"/>
</clipPath>
</defs>
</svg>
