<svg width="19" height="19" viewBox="0 0 19 19" fill="none" xmlns="http://www.w3.org/2000/svg">
<g clip-path="url(#clip0_7162_113756)">
<path d="M5.74918 17.2866C12.6438 17.2866 16.4159 11.5731 16.4159 6.61992C16.4159 6.45929 16.4123 6.2951 16.4052 6.13448C17.139 5.60382 17.7722 4.94652 18.2752 4.19346C17.5918 4.49751 16.8662 4.69609 16.1232 4.78241C16.9055 4.31348 17.4912 3.57681 17.7719 2.70896C17.0359 3.14512 16.2311 3.45279 15.3918 3.61879C14.8264 3.01796 14.0787 2.62014 13.2645 2.48683C12.4502 2.35352 11.6148 2.49216 10.8872 2.8813C10.1597 3.27045 9.5806 3.88842 9.2395 4.63969C8.8984 5.39095 8.81428 6.23367 9.00015 7.03753C7.50994 6.96275 6.05207 6.57563 4.72107 5.90127C3.39006 5.22692 2.21563 4.28037 1.27391 3.12301C0.795273 3.94823 0.648811 4.92473 0.864286 5.85406C1.07976 6.78338 1.641 7.5958 2.43395 8.12619C1.83865 8.10729 1.2564 7.94701 0.735289 7.6586V7.705C0.734756 8.57101 1.03414 9.41047 1.58256 10.0807C2.13098 10.7509 2.89457 11.2106 3.74355 11.3814C3.1921 11.5323 2.61333 11.5543 2.05203 11.4457C2.29159 12.1905 2.7577 12.8419 3.3853 13.309C4.01289 13.7761 4.77067 14.0356 5.55286 14.0513C4.22493 15.0944 2.58454 15.6602 0.895911 15.6575C0.596445 15.6571 0.297275 15.6387 0 15.6026C1.71547 16.7031 3.71102 17.2877 5.74918 17.2866Z" fill="#D7CAFC"/>
</g>
<defs>
<clipPath id="clip0_7162_113756">
<rect width="18.2752" height="18.2752" fill="white" transform="translate(0 0.724609)"/>
</clipPath>
</defs>
</svg>
