<svg width="19" height="19" viewBox="0 0 19 19" fill="none" xmlns="http://www.w3.org/2000/svg">
<g clip-path="url(#clip0_7162_113759)">
<path d="M18.7445 6.20699C18.7445 6.20699 18.566 4.947 18.0163 4.39375C17.3203 3.6656 16.5422 3.66203 16.1852 3.6192C13.6296 3.43359 9.79251 3.43359 9.79251 3.43359H9.78537C9.78537 3.43359 5.94831 3.43359 3.39264 3.6192C3.0357 3.66203 2.25758 3.6656 1.56156 4.39375C1.01187 4.947 0.836974 6.20699 0.836974 6.20699C0.836974 6.20699 0.651367 7.68828 0.651367 9.166V10.5509C0.651367 12.0286 0.833405 13.5099 0.833405 13.5099C0.833405 13.5099 1.01187 14.7699 1.55799 15.3232C2.25401 16.0513 3.16777 16.0263 3.57468 16.1048C5.03812 16.244 9.78894 16.2869 9.78894 16.2869C9.78894 16.2869 13.6296 16.2797 16.1852 16.0977C16.5422 16.0549 17.3203 16.0513 18.0163 15.3232C18.566 14.7699 18.7445 13.5099 18.7445 13.5099C18.7445 13.5099 18.9265 12.0322 18.9265 10.5509V9.166C18.9265 7.68828 18.7445 6.20699 18.7445 6.20699ZM7.90075 12.2321V7.09576L12.8372 9.67284L7.90075 12.2321Z" fill="#D7CAFC"/>
</g>
<defs>
<clipPath id="clip0_7162_113759">
<rect width="18.2752" height="18.2752" fill="white" transform="translate(0.651367 0.724609)"/>
</clipPath>
</defs>
</svg>
