<svg width="116" height="32" viewBox="0 0 116 32" fill="none" xmlns="http://www.w3.org/2000/svg">
<path fill-rule="evenodd" clip-rule="evenodd" d="M27.0375 32H5.28429C3.9268 31.9957 2.626 31.4546 1.6661 30.4947C0.706202 29.5348 0.165419 28.2341 0.161133 26.8766V5.12341C0.165419 3.76591 0.706202 2.46524 1.6661 1.50534C2.626 0.545441 3.9268 0.00428573 5.28429 0H27.0375C28.3957 0.00321426 29.6973 0.543899 30.6581 1.50391C31.6188 2.46393 32.1607 3.76521 32.165 5.12341V26.8766C32.1607 28.2341 31.6195 29.5348 30.6596 30.4947C29.6997 31.4546 28.3989 31.9957 27.0414 32" fill="#F338A3"/>
<path d="M27.0213 12.6236C26.6787 11.8144 26.1012 11.1265 25.3635 10.649C24.8326 10.3006 24.2323 10.0719 23.6042 9.97858V9.93388H23.1329C22.984 9.92568 22.835 9.92568 22.6861 9.93388H22.5357C21.6436 9.93628 20.769 10.1806 20.0047 10.6408L19.9559 10.6693C19.5791 10.9145 19.2363 11.2082 18.9362 11.5428L12.5572 17.7348C12.4137 17.8733 12.2523 17.9922 12.0775 18.0883C11.7205 18.2981 11.3136 18.4076 10.8995 18.4052C10.5046 18.4056 10.1172 18.2989 9.77821 18.0964C9.42223 17.8858 9.1301 17.5825 8.93308 17.2188C8.72036 16.8581 8.60781 16.4471 8.60772 16.0283C8.60795 15.6102 8.71869 15.1995 8.92872 14.8379C9.12302 14.4816 9.41136 14.1851 9.76194 13.9806C10.1111 13.7786 10.5084 13.6747 10.9118 13.6799C11.462 13.6601 11.9982 13.8554 12.4068 14.2244L13.1381 14.8745L15.6084 12.4042L14.9176 11.6728C14.4929 11.2212 13.9958 10.8436 13.4468 10.5555C12.6339 10.1383 11.7318 9.92492 10.8182 9.93388C10.026 9.92469 9.24046 10.0783 8.51012 10.3851C7.77978 10.6919 7.12017 11.1454 6.57227 11.7175C6.00619 12.2745 5.55902 12.9404 5.25736 13.675C4.95569 14.4096 4.80605 15.1977 4.81733 15.9918C4.80327 16.7905 4.94944 17.5839 5.24744 18.325C5.54543 19.0662 5.989 19.74 6.55203 20.3067C7.09608 20.8808 7.75292 21.336 8.48155 21.6436C9.21018 21.9513 9.99477 22.1048 10.7856 22.0944C11.6759 22.1022 12.5559 21.9048 13.3575 21.5174C13.9195 21.24 14.4348 20.8768 14.8851 20.4407L20.3701 15.0532C20.6975 14.7277 21.042 14.4198 21.4021 14.1309L21.5239 14.0294C21.979 13.6474 22.8729 13.4646 23.2995 13.8018C23.4762 13.9732 23.5931 14.1968 23.6328 14.4397C23.6664 14.6264 23.6882 14.815 23.6979 15.0045C23.7263 15.4433 23.7304 15.8902 23.7304 16.2234V21.8669H27.5049V15.8699C27.5515 14.7656 27.3873 13.6625 27.0213 12.6195" fill="white"/>
<path d="M47.8438 25.9977C46.5612 26.0145 45.2883 25.7729 44.1011 25.2872C42.9138 24.8015 41.8367 24.0817 40.9336 23.1707C40.0306 22.2597 39.3202 21.1762 38.845 19.9848C38.3698 18.7933 38.1392 17.5184 38.1673 16.236C38.1673 10.3496 42.2847 6 47.8438 6C52.5491 6 56.078 9.02621 57.0788 13.4707H53.3838C53.0639 12.2549 52.3445 11.1819 51.3415 10.4241C50.3385 9.66624 49.11 9.26747 47.8531 9.29183C44.381 9.29183 41.7674 12.0002 41.7674 16.1174C41.7674 19.912 44.1772 22.7058 47.8248 22.7058C49.1434 22.7499 50.4355 22.3296 51.4758 21.5182C52.5161 20.7067 53.2385 19.5558 53.5167 18.2661H57.164C56.7652 20.4396 55.6164 22.4041 53.9174 23.817C52.2184 25.23 50.0772 26.0017 47.8674 25.9977" fill="#2800D0"/>
<path d="M63.3732 14.2914V22.706H65.2705V25.9978H62.5338C59.6879 25.9978 59.7967 24.9116 59.7967 22.7629V14.3815H57.8994V11.0897H61.2197C63.3684 11.0897 63.3685 12.0384 63.3685 14.2914M60.6083 6.0144C60.8899 5.99768 61.172 6.03837 61.4374 6.13401C61.7029 6.22965 61.9459 6.37824 62.1521 6.57076C62.3584 6.76328 62.5234 6.99572 62.6371 7.25395C62.7508 7.51219 62.8109 7.79084 62.8136 8.07298C62.8109 8.35513 62.7508 8.63378 62.6371 8.89201C62.5234 9.15025 62.3584 9.38268 62.1521 9.5752C61.9459 9.76772 61.7029 9.91631 61.4374 10.012C61.172 10.1076 60.8899 10.1483 60.6083 10.1316C60.3266 10.1483 60.0441 10.1076 59.7787 10.012C59.5132 9.91631 59.2702 9.76772 59.0639 9.5752C58.8577 9.38268 58.6926 9.15025 58.5789 8.89201C58.4652 8.63378 58.4052 8.35513 58.4025 8.07298C58.4052 7.79084 58.4652 7.51219 58.5789 7.25395C58.6926 6.99572 58.8577 6.76328 59.0639 6.57076C59.2702 6.37824 59.5132 6.22965 59.7787 6.13401C60.0441 6.03837 60.3266 5.99768 60.6083 6.0144Z" fill="#2800D0"/>
<path d="M66.5506 22.7152V14.3339H64.2549V11.0373H66.5506V6.04736H70.1367V11.0373H74.6095V14.3339H70.1367V22.6536H74.6947V25.9359H69.0028C66.7402 25.9359 66.5649 24.845 66.5649 22.701" fill="#2800D0"/>
<path d="M75.459 11.0373H79.0498V13.409C79.4312 12.6237 80.0236 11.9602 80.7609 11.4927C81.4981 11.0252 82.3509 10.7723 83.2238 10.7622C87.5781 10.5583 89.812 13.7315 89.812 18.4985V25.936H86.2263V18.4653C86.2263 15.1687 85.0498 14.0256 82.6355 14.0256C80.667 14.0256 79.0211 15.2873 79.0211 18.4653L79.0498 25.936H75.459V11.0373Z" fill="#2800D0"/>
<path d="M98.2553 25.9978C93.512 25.9978 90.5762 22.5304 90.5762 18.4417C90.5762 13.4992 93.5168 10.5015 98.1937 10.5015C102.197 10.5015 105.959 13.7032 105.812 18.7643L94.167 18.7927C94.167 20.6473 95.988 22.7059 98.2553 22.7059C100.314 22.7059 101.168 21.9423 101.784 20.9414H105.37C104.891 22.4403 103.938 23.7433 102.655 24.6549C101.372 25.5666 99.8285 26.0377 98.2553 25.9978ZM101.96 16.3831C101.69 15.6067 101.179 14.9369 100.501 14.4711C99.824 14.0052 99.0154 13.7678 98.1937 13.7933C97.3691 13.751 96.5539 13.9818 95.8739 14.45C95.1939 14.9183 94.687 15.5977 94.4324 16.3831H101.96Z" fill="#2800D0"/>
<path d="M107.694 22.7152V14.3339H105.398V11.0373H107.694V6.04736H111.279V11.0373H115.753V14.3339H111.279V22.6536H115.838V25.9359H110.146C107.879 25.9359 107.703 24.845 107.703 22.701" fill="#2800D0"/>
</svg>
