<svg width="116" height="32" viewBox="0 0 116 32" fill="none" xmlns="http://www.w3.org/2000/svg">
<path fill-rule="evenodd" clip-rule="evenodd" d="M26.8763 32H5.12316C3.76566 31.9957 2.46487 31.4546 1.50497 30.4947C0.545069 29.5348 0.00428573 28.2341 0 26.8766V5.12341C0.00428573 3.76591 0.545069 2.46524 1.50497 1.50534C2.46487 0.545441 3.76566 0.00428573 5.12316 0H26.8763C28.2345 0.00321426 29.5361 0.543899 30.4969 1.50391C31.4577 2.46393 31.9996 3.76521 32.0039 5.12341V26.8766C31.9996 28.2341 31.4584 29.5348 30.4985 30.4947C29.5386 31.4546 28.2378 31.9957 26.8803 32" fill="#F338A3"/>
<path d="M26.8601 12.6236C26.5175 11.8144 25.9401 11.1265 25.2024 10.649C24.6715 10.3006 24.0712 10.0719 23.4431 9.97858V9.93388H22.9717C22.8229 9.92568 22.6738 9.92568 22.525 9.93388H22.3746C21.4824 9.93628 20.6078 10.1806 19.8436 10.6408L19.7948 10.6693C19.418 10.9145 19.0752 11.2082 18.775 11.5428L12.3961 17.7348C12.2526 17.8733 12.0911 17.9922 11.9164 18.0883C11.5593 18.2981 11.1525 18.4076 10.7384 18.4052C10.3435 18.4056 9.95604 18.2989 9.61708 18.0964C9.26109 17.8858 8.96896 17.5825 8.77195 17.2188C8.55923 16.8581 8.44668 16.4471 8.44659 16.0283C8.44681 15.6102 8.55756 15.1995 8.76758 14.8379C8.96189 14.4816 9.25023 14.1851 9.60081 13.9806C9.95 13.7786 10.3473 13.6747 10.7507 13.6799C11.3009 13.6601 11.8371 13.8554 12.2457 14.2244L12.977 14.8745L15.4473 12.4042L14.7565 11.6728C14.3318 11.2212 13.8346 10.8436 13.2857 10.5555C12.4728 10.1383 11.5707 9.92492 10.657 9.93388C9.86491 9.92469 9.07932 10.0783 8.34898 10.3851C7.61865 10.6919 6.95904 11.1454 6.41114 11.7175C5.84506 12.2745 5.39789 12.9404 5.09622 13.675C4.79456 14.4096 4.64492 15.1977 4.6562 15.9918C4.64213 16.7905 4.78831 17.5839 5.0863 18.325C5.3843 19.0662 5.82787 19.74 6.3909 20.3067C6.93494 20.8808 7.59179 21.336 8.32042 21.6436C9.04904 21.9513 9.83363 22.1048 10.6245 22.0944C11.5147 22.1022 12.3948 21.9048 13.1964 21.5174C13.7584 21.24 14.2737 20.8768 14.724 20.4407L20.209 15.0532C20.5364 14.7277 20.8809 14.4198 21.241 14.1309L21.3628 14.0294C21.8179 13.6474 22.7118 13.4646 23.1384 13.8018C23.3151 13.9732 23.432 14.1968 23.4717 14.4397C23.5053 14.6264 23.5271 14.815 23.5367 15.0045C23.5652 15.4433 23.5693 15.8902 23.5693 16.2234V21.8669H27.3438V15.8699C27.3904 14.7656 27.2261 13.6625 26.8601 12.6195" fill="white"/>
<path d="M47.6827 25.9977C46.4001 26.0145 45.1271 25.7729 43.9399 25.2872C42.7527 24.8015 41.6755 24.0817 40.7725 23.1707C39.8695 22.2597 39.1591 21.1762 38.6839 19.9848C38.2086 18.7933 37.9781 17.5184 38.0062 16.236C38.0062 10.3496 42.1235 6 47.6827 6C52.388 6 55.9168 9.02621 56.9177 13.4707H53.2226C52.9028 12.2549 52.1834 11.1819 51.1804 10.4241C50.1773 9.66624 48.9488 9.26747 47.6919 9.29183C44.2198 9.29183 41.6063 12.0002 41.6063 16.1174C41.6063 19.912 44.0161 22.7058 47.6637 22.7058C48.9823 22.7499 50.2744 22.3296 51.3147 21.5182C52.355 20.7067 53.0773 19.5558 53.3556 18.2661H57.0029C56.6041 20.4396 55.4553 22.4041 53.7563 23.817C52.0573 25.23 49.916 26.0017 47.7063 25.9977" fill="#FEFEFE"/>
<path d="M63.212 14.2904V22.705H65.1093V25.9968H62.3727C59.5267 25.9968 59.6356 24.9106 59.6356 22.7619V14.3806H57.7383V11.0887H61.0586C63.2073 11.0887 63.2074 12.0374 63.2074 14.2904M60.4471 6.01343C60.7288 5.9967 61.0108 6.0374 61.2763 6.13304C61.5417 6.22868 61.7847 6.37726 61.991 6.56979C62.1973 6.76231 62.3623 6.99474 62.476 7.25298C62.5897 7.51121 62.6498 7.78986 62.6525 8.07201C62.6498 8.35415 62.5897 8.6328 62.476 8.89104C62.3623 9.14927 62.1973 9.38171 61.991 9.57423C61.7847 9.76675 61.5417 9.91534 61.2763 10.011C61.0108 10.1066 60.7288 10.1473 60.4471 10.1306C60.1655 10.1473 59.883 10.1066 59.6175 10.011C59.3521 9.91534 59.1091 9.76675 58.9028 9.57423C58.6965 9.38171 58.5315 9.14927 58.4178 8.89104C58.3041 8.6328 58.244 8.35415 58.2413 8.07201C58.244 7.78986 58.3041 7.51121 58.4178 7.25298C58.5315 6.99474 58.6965 6.76231 58.9028 6.56979C59.1091 6.37726 59.3521 6.22868 59.6175 6.13304C59.883 6.0374 60.1655 5.9967 60.4471 6.01343Z" fill="#FEFEFE"/>
<path d="M66.3894 22.7148V14.3334H64.0938V11.0368H66.3894V6.04688H69.9756V11.0368H74.4483V14.3334H69.9756V22.6531H74.5336V25.9354H68.8417C66.5791 25.9354 66.4038 24.8445 66.4038 22.7005" fill="#FEFEFE"/>
<path d="M75.2979 11.0383H78.8887V13.4099C79.27 12.6247 79.8625 11.9612 80.5998 11.4937C81.337 11.0262 82.1897 10.7733 83.0626 10.7632C87.417 10.5592 89.6509 13.7325 89.6509 18.4995V25.9369H86.0652V18.4663C86.0652 15.1697 84.8887 14.0266 82.4744 14.0266C80.5059 14.0266 78.8599 15.2883 78.8599 18.4663L78.8887 25.9369H75.2979V11.0383Z" fill="#FEFEFE"/>
<path d="M98.0941 25.9982C93.3509 25.9982 90.415 22.5309 90.415 18.4422C90.415 13.4997 93.3557 10.502 98.0325 10.502C102.036 10.502 105.798 13.7037 105.65 18.7647L94.0058 18.7932C94.0058 20.6478 95.8268 22.7064 98.0941 22.7064C100.153 22.7064 101.007 21.9427 101.623 20.9419H105.209C104.729 22.4408 103.777 23.7438 102.494 24.6554C101.211 25.5671 99.6674 26.0382 98.0941 25.9982ZM101.799 16.3836C101.529 15.6072 101.018 14.9374 100.34 14.4715C99.6628 14.0057 98.8542 13.7683 98.0325 13.7938C97.208 13.7515 96.3928 13.9823 95.7128 14.4505C95.0327 14.9187 94.5259 15.5982 94.2713 16.3836H101.799Z" fill="#FEFEFE"/>
<path d="M107.533 22.7148V14.3334H105.237V11.0368H107.533V6.04688H111.119V11.0368H115.592V14.3334H111.119V22.6531H115.677V25.9354H109.985C107.718 25.9354 107.542 24.8445 107.542 22.7005" fill="#FEFEFE"/>
</svg>
